<svg width="24" height="32" viewBox="0 0 24 32" fill="none" xmlns="http://www.w3.org/2000/svg">
<path d="M3.25 24.75V11.1389H7.13889V7.25H16.8611V15.0278H20.75V24.75H12.9722V20.8611H11.0278V24.75H3.25ZM5.19444 22.8056H7.13889V20.8611H5.19444V22.8056ZM5.19444 18.9167H7.13889V16.9722H5.19444V18.9167ZM5.19444 15.0278H7.13889V13.0833H5.19444V15.0278ZM9.08333 18.9167H11.0278V16.9722H9.08333V18.9167ZM9.08333 15.0278H11.0278V13.0833H9.08333V15.0278ZM9.08333 11.1389H11.0278V9.19444H9.08333V11.1389ZM12.9722 18.9167H14.9167V16.9722H12.9722V18.9167ZM12.9722 15.0278H14.9167V13.0833H12.9722V15.0278ZM12.9722 11.1389H14.9167V9.19444H12.9722V11.1389ZM16.8611 22.8056H18.8056V20.8611H16.8611V22.8056ZM16.8611 18.9167H18.8056V16.9722H16.8611V18.9167Z" fill="#706D79"/>
</svg>
