<svg width="24" height="32" viewBox="0 0 24 32" fill="none" xmlns="http://www.w3.org/2000/svg">
<path d="M11.9996 25.7222C10.6547 25.7222 9.39077 25.467 8.2079 24.9565C7.02503 24.4461 5.99609 23.7534 5.12109 22.8784C4.24609 22.0034 3.55339 20.9745 3.04297 19.7916C2.53255 18.6087 2.27734 17.3449 2.27734 15.9999H4.22179C4.22179 17.0694 4.42433 18.0781 4.82943 19.026C5.23452 19.9739 5.7895 20.8003 6.49436 21.5052C7.19922 22.21 8.02561 22.769 8.97352 23.1822C9.92144 23.5954 10.9301 23.802 11.9996 23.802C14.1709 23.802 16.01 23.0486 17.5169 21.5416C19.0239 20.0347 19.7773 18.1955 19.7773 16.0243C19.7773 13.853 19.0239 12.0138 17.5169 10.5069C16.01 8.99994 14.1709 8.24647 11.9996 8.24647C10.5574 8.24647 9.24899 8.5989 8.07422 9.30376C6.89945 10.0086 5.97179 10.9444 5.29123 12.1111H8.11068V14.0555H2.27734V8.22217H4.22179V10.1666C5.11299 8.98374 6.23105 8.03988 7.57595 7.33501C8.92086 6.63015 10.3954 6.27772 11.9996 6.27772C13.3445 6.27772 14.6084 6.53293 15.7912 7.04335C16.9741 7.55376 18.003 8.24647 18.878 9.12147C19.753 9.99647 20.4457 11.0254 20.9562 12.2083C21.4666 13.3911 21.7218 14.655 21.7218 15.9999C21.7218 17.3449 21.4666 18.6087 20.9562 19.7916C20.4457 20.9745 19.753 22.0034 18.878 22.8784C18.003 23.7534 16.9741 24.4461 15.7912 24.9565C14.6084 25.467 13.3445 25.7222 11.9996 25.7222ZM10.0551 19.8888C9.77966 19.8888 9.54876 19.7957 9.36241 19.6093C9.17607 19.423 9.0829 19.1921 9.0829 18.9166V15.9999C9.0829 15.7245 9.17607 15.4936 9.36241 15.3072C9.54876 15.1209 9.77966 15.0277 10.0551 15.0277V14.0555C10.0551 13.5208 10.2455 13.063 10.6263 12.6822C11.0071 12.3014 11.4648 12.1111 11.9996 12.1111C12.5343 12.1111 12.992 12.3014 13.3728 12.6822C13.7536 13.063 13.944 13.5208 13.944 14.0555V15.0277C14.2195 15.0277 14.4504 15.1209 14.6367 15.3072C14.8231 15.4936 14.9162 15.7245 14.9162 15.9999V18.9166C14.9162 19.1921 14.8231 19.423 14.6367 19.6093C14.4504 19.7957 14.2195 19.8888 13.944 19.8888H10.0551ZM11.0273 15.0277H12.9718V14.0555C12.9718 13.78 12.8786 13.5491 12.6923 13.3628C12.5059 13.1764 12.275 13.0833 11.9996 13.0833C11.7241 13.0833 11.4932 13.1764 11.3069 13.3628C11.1205 13.5491 11.0273 13.78 11.0273 14.0555V15.0277Z" fill="#706D79"/>
</svg>
