<svg width="24" height="32" viewBox="0 0 24 32" fill="none" xmlns="http://www.w3.org/2000/svg">
<path d="M13.9446 13.9584V12.3056C14.4793 12.0788 15.0262 11.9086 15.5852 11.7952C16.1442 11.6818 16.7316 11.6251 17.3473 11.6251C17.7686 11.6251 18.1818 11.6575 18.5869 11.7223C18.992 11.7871 19.389 11.8681 19.7779 11.9653V13.5209C19.389 13.3751 18.9961 13.2657 18.5991 13.1928C18.2021 13.1198 17.7848 13.0834 17.3473 13.0834C16.7316 13.0834 16.1402 13.1604 15.573 13.3143C15.0059 13.4682 14.4631 13.6829 13.9446 13.9584ZM13.9446 19.3056V17.6528C14.4793 17.426 15.0262 17.2558 15.5852 17.1424C16.1442 17.029 16.7316 16.9723 17.3473 16.9723C17.7686 16.9723 18.1818 17.0047 18.5869 17.0695C18.992 17.1343 19.389 17.2153 19.7779 17.3126V18.8681C19.389 18.7223 18.9961 18.6129 18.5991 18.54C18.2021 18.4671 17.7848 18.4306 17.3473 18.4306C16.7316 18.4306 16.1402 18.5035 15.573 18.6494C15.0059 18.7952 14.4631 19.0139 13.9446 19.3056ZM13.9446 16.632V14.9792C14.4793 14.7524 15.0262 14.5822 15.5852 14.4688C16.1442 14.3554 16.7316 14.2987 17.3473 14.2987C17.7686 14.2987 18.1818 14.3311 18.5869 14.3959C18.992 14.4607 19.389 14.5417 19.7779 14.6389V16.1945C19.389 16.0487 18.9961 15.9393 18.5991 15.8664C18.2021 15.7935 17.7848 15.757 17.3473 15.757C16.7316 15.757 16.1402 15.834 15.573 15.9879C15.0059 16.1418 14.4631 16.3565 13.9446 16.632ZM6.65289 19.8889C7.41446 19.8889 8.15578 19.974 8.87684 20.1442C9.59791 20.3143 10.3149 20.5695 11.0279 20.9098V11.3334C10.3635 10.9445 9.65867 10.6528 8.9133 10.4584C8.16793 10.2639 7.41446 10.1667 6.65289 10.1667C6.06955 10.1667 5.49027 10.2234 4.91504 10.3369C4.33981 10.4503 3.78483 10.6204 3.25011 10.8473V20.4723C3.81724 20.2778 4.38032 20.132 4.93934 20.0348C5.49837 19.9376 6.06955 19.8889 6.65289 19.8889ZM12.9723 20.9098C13.6853 20.5695 14.4023 20.3143 15.1234 20.1442C15.8444 19.974 16.5858 19.8889 17.3473 19.8889C17.9307 19.8889 18.5018 19.9376 19.0609 20.0348C19.6199 20.132 20.183 20.2778 20.7501 20.4723V10.8473C20.2154 10.6204 19.6604 10.4503 19.0852 10.3369C18.5099 10.2234 17.9307 10.1667 17.3473 10.1667C16.5858 10.1667 15.8323 10.2639 15.0869 10.4584C14.3415 10.6528 13.6367 10.9445 12.9723 11.3334V20.9098ZM12.0001 23.7778C11.2223 23.1621 10.3797 22.6841 9.47233 22.3438C8.56492 22.0035 7.62511 21.8334 6.65289 21.8334C5.97233 21.8334 5.30393 21.9225 4.64768 22.1007C3.99143 22.279 3.36353 22.5301 2.764 22.8542C2.42372 23.0325 2.09559 23.0244 1.77962 22.8299C1.46365 22.6355 1.30566 22.3519 1.30566 21.9792V10.2639C1.30566 10.0857 1.35022 9.91556 1.43934 9.75353C1.52846 9.59149 1.66215 9.46996 1.84039 9.38894C2.58576 9.00005 3.36353 8.70839 4.17372 8.51394C4.9839 8.3195 5.81029 8.22228 6.65289 8.22228C7.5927 8.22228 8.51226 8.3438 9.41157 8.58686C10.3109 8.82992 11.1737 9.1945 12.0001 9.68061C12.8265 9.1945 13.6893 8.82992 14.5887 8.58686C15.488 8.3438 16.4075 8.22228 17.3473 8.22228C18.1899 8.22228 19.0163 8.3195 19.8265 8.51394C20.6367 8.70839 21.4145 9.00005 22.1598 9.38894C22.3381 9.46996 22.4718 9.59149 22.5609 9.75353C22.65 9.91556 22.6946 10.0857 22.6946 10.2639V21.9792C22.6946 22.3519 22.5366 22.6355 22.2206 22.8299C21.9046 23.0244 21.5765 23.0325 21.2362 22.8542C20.6367 22.5301 20.0088 22.279 19.3525 22.1007C18.6963 21.9225 18.0279 21.8334 17.3473 21.8334C16.3751 21.8334 15.4353 22.0035 14.5279 22.3438C13.6205 22.6841 12.7779 23.1621 12.0001 23.7778Z" fill="#706D79"/>
</svg>
