<svg width="24" height="28" viewBox="0 0 24 28" fill="none" xmlns="http://www.w3.org/2000/svg">
<path d="M5.19444 23.7222C4.65972 23.7222 4.20197 23.5318 3.82118 23.151C3.44039 22.7702 3.25 22.3124 3.25 21.7777V8.16661C3.25 7.63189 3.44039 7.17414 3.82118 6.79335C4.20197 6.41256 4.65972 6.22217 5.19444 6.22217H6.16667V4.27772H8.11111V6.22217H15.8889V4.27772H17.8333V6.22217H18.8056C19.3403 6.22217 19.798 6.41256 20.1788 6.79335C20.5596 7.17414 20.75 7.63189 20.75 8.16661V21.7777C20.75 22.3124 20.5596 22.7702 20.1788 23.151C19.798 23.5318 19.3403 23.7222 18.8056 23.7222H5.19444ZM5.19444 21.7777H18.8056V12.0555H5.19444V21.7777ZM5.19444 10.1111H18.8056V8.16661H5.19444V10.1111Z" fill="#706D79"/>
</svg>
