<svg width="24" height="32" viewBox="0 0 24 32" fill="none" xmlns="http://www.w3.org/2000/svg">
<path d="M4.22266 17.9445V16.0001H11.0282V17.9445H4.22266ZM4.22266 14.0556V12.1112H14.9171V14.0556H4.22266ZM4.22266 10.1667V8.22228H14.9171V10.1667H4.22266ZM12.9727 23.7778V20.7882L18.3442 15.441C18.49 15.2952 18.6521 15.1899 18.8303 15.1251C19.0085 15.0602 19.1868 15.0278 19.365 15.0278C19.5595 15.0278 19.7458 15.0643 19.924 15.1372C20.1023 15.2101 20.2643 15.3195 20.4102 15.4653L21.3095 16.3646C21.4391 16.5105 21.5404 16.6725 21.6133 16.8507C21.6862 17.029 21.7227 17.2072 21.7227 17.3855C21.7227 17.5637 21.6902 17.746 21.6254 17.9323C21.5606 18.1187 21.4553 18.2848 21.3095 18.4306L15.9622 23.7778H12.9727ZM14.431 22.3195H15.3546L18.2956 19.3542L17.8581 18.8924L17.3963 18.4549L14.431 21.3959V22.3195ZM17.8581 18.8924L17.3963 18.4549L18.2956 19.3542L17.8581 18.8924Z" fill="#706D79"/>
</svg>
