<svg width="24" height="32" viewBox="0 0 24 32" fill="none" xmlns="http://www.w3.org/2000/svg">
<path d="M9.32671 25.7222L8.93783 22.6111C8.72718 22.53 8.52868 22.4328 8.34234 22.3194C8.156 22.206 7.97371 22.0844 7.79546 21.9548L4.9031 23.1701L2.22949 18.552L4.73296 16.6562C4.71676 16.5428 4.70866 16.4334 4.70866 16.3281C4.70866 16.2227 4.70866 16.1134 4.70866 15.9999C4.70866 15.8865 4.70866 15.7771 4.70866 15.6718C4.70866 15.5665 4.71676 15.4571 4.73296 15.3437L2.22949 13.4479L4.9031 8.82981L7.79546 10.0451C7.97371 9.91545 8.16005 9.79393 8.35449 9.6805C8.54894 9.56708 8.74338 9.46985 8.93783 9.38883L9.32671 6.27772H14.6739L15.0628 9.38883C15.2735 9.46985 15.472 9.56708 15.6583 9.6805C15.8447 9.79393 16.0269 9.91545 16.2052 10.0451L19.0975 8.82981L21.7712 13.4479L19.2677 15.3437C19.2839 15.4571 19.292 15.5665 19.292 15.6718C19.292 15.7771 19.292 15.8865 19.292 15.9999C19.292 16.1134 19.292 16.2227 19.292 16.3281C19.292 16.4334 19.2758 16.5428 19.2434 16.6562L21.7469 18.552L19.0732 23.1701L16.2052 21.9548C16.0269 22.0844 15.8406 22.206 15.6462 22.3194C15.4517 22.4328 15.2573 22.53 15.0628 22.6111L14.6739 25.7222H9.32671ZM11.0281 23.7777H12.9482L13.2885 21.2013C13.7908 21.0717 14.2567 20.8813 14.6861 20.6302C15.1155 20.379 15.5084 20.0752 15.8649 19.7187L18.2712 20.7152L19.2191 19.0624L17.1288 17.4826C17.2098 17.2557 17.2665 17.0167 17.2989 16.7656C17.3313 16.5144 17.3475 16.2592 17.3475 15.9999C17.3475 15.7407 17.3313 15.4855 17.2989 15.2343C17.2665 14.9832 17.2098 14.7442 17.1288 14.5173L19.2191 12.9374L18.2712 11.2847L15.8649 12.3055C15.5084 11.9328 15.1155 11.6209 14.6861 11.3697C14.2567 11.1186 13.7908 10.9282 13.2885 10.7986L12.9725 8.22217H11.0524L10.7121 10.7986C10.2098 10.9282 9.74396 11.1186 9.31456 11.3697C8.88516 11.6209 8.49222 11.9247 8.13574 12.2812L5.72949 11.2847L4.78158 12.9374L6.87185 14.493C6.79084 14.7361 6.73412 14.9791 6.70171 15.2222C6.66931 15.4652 6.6531 15.7245 6.6531 15.9999C6.6531 16.2592 6.66931 16.5104 6.70171 16.7534C6.73412 16.9965 6.79084 17.2395 6.87185 17.4826L4.78158 19.0624L5.72949 20.7152L8.13574 19.6944C8.49222 20.0671 8.88516 20.379 9.31456 20.6302C9.74396 20.8813 10.2098 21.0717 10.7121 21.2013L11.0281 23.7777ZM12.0489 19.4027C12.9888 19.4027 13.7908 19.0705 14.4552 18.4062C15.1195 17.7418 15.4517 16.9398 15.4517 15.9999C15.4517 15.0601 15.1195 14.258 14.4552 13.5937C13.7908 12.9293 12.9888 12.5972 12.0489 12.5972C11.0929 12.5972 10.2868 12.9293 9.63053 13.5937C8.97428 14.258 8.64616 15.0601 8.64616 15.9999C8.64616 16.9398 8.97428 17.7418 9.63053 18.4062C10.2868 19.0705 11.0929 19.4027 12.0489 19.4027Z" fill="#706D79"/>
</svg>
