<svg width="24" height="28" viewBox="0 0 24 28" fill="none" xmlns="http://www.w3.org/2000/svg">
<path d="M1.30566 21.7778V19.0556C1.30566 18.5047 1.44745 17.9983 1.73101 17.5365C2.01458 17.0747 2.39131 16.7223 2.86122 16.4792C3.86585 15.9769 4.88668 15.6002 5.92372 15.349C6.96076 15.0979 8.014 14.9723 9.08344 14.9723C10.1529 14.9723 11.2061 15.0979 12.2432 15.349C13.2802 15.6002 14.301 15.9769 15.3057 16.4792C15.7756 16.7223 16.1523 17.0747 16.4359 17.5365C16.7194 17.9983 16.8612 18.5047 16.8612 19.0556V21.7778H1.30566ZM18.8057 21.7778V18.8612C18.8057 18.1482 18.6072 17.4636 18.2102 16.8073C17.8132 16.1511 17.2501 15.588 16.5209 15.1181C17.3473 15.2153 18.1251 15.3814 18.8543 15.6164C19.5834 15.8513 20.264 16.1389 20.8959 16.4792C21.4793 16.8033 21.9249 17.1638 22.2327 17.5608C22.5406 17.9578 22.6946 18.3913 22.6946 18.8612V21.7778H18.8057ZM9.08344 14.0001C9.08344 14.0001 8.81608 14.0001 8.28136 14.0001C7.74664 14.0001 7.09849 13.6193 6.33691 12.8577C5.57534 12.0961 5.19455 11.1806 5.19455 10.1112C5.19455 9.04172 5.57534 8.12621 6.33691 7.36464C7.09849 6.60306 8.014 6.22228 9.08344 6.22228C10.1529 6.22228 11.0684 6.60306 11.83 7.36464C12.5915 8.12621 12.9723 9.04172 12.9723 10.1112C12.9723 11.1806 12.5915 12.0961 11.83 12.8577C11.0684 13.6193 10.1529 14.0001 9.08344 14.0001ZM18.8057 10.1112C18.8057 10.1112 18.8057 10.3785 18.8057 10.9132C18.8057 11.448 18.4249 12.0961 17.6633 12.8577C16.9017 13.6193 15.9862 14.0001 14.9168 14.0001C14.7385 14.0001 14.5117 13.9798 14.2362 13.9393C13.9608 13.8988 13.7339 13.8542 13.5557 13.8056C13.9932 13.2871 14.3294 12.7119 14.5643 12.0799C14.7993 11.448 14.9168 10.7917 14.9168 10.1112C14.9168 9.43061 14.7993 8.77436 14.5643 8.14242C14.3294 7.51047 13.9932 6.93524 13.5557 6.41672C13.7825 6.3357 14.0094 6.28304 14.2362 6.25873C14.4631 6.23443 14.6899 6.22228 14.9168 6.22228C15.9862 6.22228 16.9017 6.60306 17.6633 7.36464C18.4249 8.12621 18.8057 9.04172 18.8057 10.1112ZM3.25011 19.8334H14.9168V19.0556C14.9168 18.8774 14.8722 18.7153 14.7831 18.5695C14.694 18.4237 14.5765 18.3102 14.4307 18.2292C13.5557 17.7917 12.6726 17.4636 11.7814 17.2448C10.8902 17.0261 9.99085 16.9167 9.08344 16.9167C8.17603 16.9167 7.27673 17.0261 6.38553 17.2448C5.49432 17.4636 4.61122 17.7917 3.73622 18.2292C3.59039 18.3102 3.47291 18.4237 3.38379 18.5695C3.29467 18.7153 3.25011 18.8774 3.25011 19.0556V19.8334ZM9.08344 12.0556C9.08344 12.0556 9.21712 12.0556 9.48448 12.0556C9.75184 12.0556 10.0759 11.8652 10.4567 11.4844C10.8375 11.1036 11.0279 10.6459 11.0279 10.1112C11.0279 9.57644 10.8375 9.11869 10.4567 8.7379C10.0759 8.35711 9.61816 8.16672 9.08344 8.16672C8.54872 8.16672 8.09097 8.35711 7.71018 8.7379C7.32939 9.11869 7.139 9.57644 7.139 10.1112C7.139 10.6459 7.32939 11.1036 7.71018 11.4844C8.09097 11.8652 8.54872 12.0556 9.08344 12.0556Z" fill="white"/>
</svg>
