<svg width="20" height="21" viewBox="0 0 20 21" fill="none" xmlns="http://www.w3.org/2000/svg">
<path d="M18.3333 0H5C4.55797 0 4.13405 0.170192 3.82149 0.473135C3.50893 0.776078 3.33333 1.18696 3.33333 1.61538V4.03846H1.66667C1.22464 4.03846 0.800716 4.20865 0.488155 4.5116C0.175595 4.81454 0 5.22542 0 5.65385V15.3462C0 15.7746 0.175595 16.1855 0.488155 16.4884C0.800716 16.7913 1.22464 16.9615 1.66667 16.9615H3.33333V19.3846C3.33333 19.813 3.50893 20.2239 3.82149 20.5269C4.13405 20.8298 4.55797 21 5 21H18.3333C18.7754 21 19.1993 20.8298 19.5118 20.5269C19.8244 20.2239 20 19.813 20 19.3846V1.61538C20 1.18696 19.8244 0.776078 19.5118 0.473135C19.1993 0.170192 18.7754 0 18.3333 0ZM5 13.7308C4.8416 13.7308 4.68647 13.6871 4.55277 13.6048C4.41908 13.5225 4.31237 13.4049 4.24514 13.2659C4.17791 13.1269 4.15295 12.9722 4.17318 12.8199C4.19341 12.6676 4.258 12.5241 4.35937 12.4062L5.99896 10.5L4.35937 8.59385C4.21793 8.42917 4.14977 8.21678 4.16989 8.00339C4.19001 7.79001 4.29676 7.59311 4.46667 7.45601C4.63657 7.31891 4.85571 7.25285 5.07587 7.27235C5.29603 7.29185 5.49918 7.39532 5.64062 7.56L7.08333 9.23798L8.52604 7.56C8.59608 7.47846 8.682 7.41109 8.7789 7.36174C8.87581 7.31238 8.98179 7.28201 9.0908 7.27235C9.19981 7.26269 9.30972 7.27394 9.41425 7.30546C9.51877 7.33697 9.61587 7.38813 9.7 7.45601C9.78413 7.52389 9.85364 7.60717 9.90456 7.70109C9.95548 7.79501 9.98682 7.89773 9.99678 8.00339C10.0067 8.10905 9.99514 8.21557 9.96262 8.31688C9.93011 8.41819 9.87733 8.51231 9.80729 8.59385L8.16771 10.5L9.80729 12.4062C9.94874 12.5708 10.0169 12.7832 9.99678 12.9966C9.97666 13.21 9.8699 13.4069 9.7 13.544C9.5301 13.6811 9.31096 13.7472 9.0908 13.7276C8.87064 13.7081 8.66749 13.6047 8.52604 13.44L7.08333 11.762L5.64062 13.44C5.56239 13.531 5.46444 13.6043 5.35372 13.6545C5.24301 13.7048 5.12225 13.7308 5 13.7308ZM10.8333 19.3846H5V16.9615H10.8333V19.3846ZM10.8333 4.03846H5V1.61538H10.8333V4.03846ZM18.3333 19.3846H12.5V16.9615C12.942 16.9615 13.3659 16.7913 13.6785 16.4884C13.9911 16.1855 14.1667 15.7746 14.1667 15.3462V14.5385H18.3333V19.3846ZM18.3333 12.9231H14.1667V8.07692H18.3333V12.9231ZM18.3333 6.46154H14.1667V5.65385C14.1667 5.22542 13.9911 4.81454 13.6785 4.5116C13.3659 4.20865 12.942 4.03846 12.5 4.03846V1.61538H18.3333V6.46154Z" fill="#357B85"/>
</svg>
